<?xml version="1.0" encoding="UTF-8"?>
<!DOCTYPE svg PUBLIC "-//W3C//DTD SVG 1.1//EN" "http://www.w3.org/Graphics/SVG/1.1/DTD/svg11.dtd">
<!-- Creator: CorelDRAW X8 -->
<svg xmlns="http://www.w3.org/2000/svg" xml:space="preserve" width="22px" height="12px" version="1.1" style="shape-rendering:geometricPrecision; text-rendering:geometricPrecision; image-rendering:optimizeQuality; fill-rule:evenodd; clip-rule:evenodd"
viewBox="0 0 2200000 1200150"
 xmlns:xlink="http://www.w3.org/1999/xlink">
 <defs>
  <style type="text/css">
   <![CDATA[
    .fil0 {fill:#8C30F5}
   ]]>
  </style>
 </defs>
 <g id="Слой_x0020_1">
  <metadata id="CorelCorpID_0Corel-Layer"/>
  <path class="fil0" d="M1529300 170775l329268 329268 -1758536 0c-55153,0 -100032,44761 -100032,100032 0,55272 44879,100032 100032,100032l1758536 0 -329268 329268c-19605,19487 -29289,45115 -29289,70625 0,25628 9684,51256 29289,70743 38974,39092 102276,39092 141368,0l499925 -499925c2362,-2362 4606,-4842 6731,-7322 945,-1181 1654,-2362 2599,-3543 1063,-1417 2126,-2835 3188,-4370 945,-1417 1772,-2834 2599,-4252 826,-1417 1653,-2716 2480,-4133 708,-1536 1417,-2953 2126,-4488 708,-1417 1417,-2953 2007,-4370 591,-1535 1063,-2952 1654,-4488 590,-1535 1181,-3188 1653,-4724 473,-1535 827,-3070 1181,-4488 355,-1653 827,-3307 1181,-5078 355,-1653 591,-3425 827,-5078 236,-1536 472,-3071 590,-4606 355,-3189 473,-6378 473,-9567 0,0 118,-118 118,-236 0,-118 -118,-236 -118,-354 0,-3189 -118,-6378 -473,-9448 -118,-1536 -354,-3071 -590,-4606 -236,-1654 -472,-3425 -827,-5079 -354,-1771 -826,-3425 -1181,-5078 -354,-1535 -708,-2953 -1181,-4488 -472,-1653 -1063,-3189 -1653,-4724 -591,-1535 -1063,-3071 -1654,-4488 -590,-1535 -1299,-2952 -2007,-4370 -709,-1535 -1418,-3070 -2126,-4487 -827,-1418 -1654,-2717 -2480,-4134 -827,-1417 -1654,-2834 -2599,-4252 -1062,-1535 -2125,-2952 -3188,-4369 -945,-1181 -1654,-2362 -2599,-3544 -2125,-2480 -4369,-4960 -6731,-7322l-499925 -499925c-39092,-39091 -102394,-39091 -141368,0 -39092,39092 -39092,102395 0,141368z"/>
 </g>
</svg>
